# xmcd
#
# Track frame offsets:
#	150
#	40403
#	89539
#	127198
#	166009
#	197729
#	233693
#
# Disc length: 3824 seconds
#
# Revision: 1
# Processed by: cddbd v1.5.1PL0 Copyright (c) Steve Scherf et al.
# Submitted via: CDex 1.50Beta5
#
DISCID=580eee07
DTITLE=スイス・ロマンド管弦楽団 - 天国と地獄〜アンセルメ・フランス音楽コンサート
DYEAR=1900
DGENRE=Classical
TTITLE0=オッフェンバック:喜歌劇「天国と地獄」序曲
TTITLE1=デュカス:交響詩「魔法使いの弟子」
TTITLE2=トマ:歌劇「ミニヨン」序曲
TTITLE3=オッフェンバック:喜歌劇「美しいエレーヌ」序曲
TTITLE4=シャブリエ:狂詩曲「スペイン」
TTITLE5=エロルド:歌劇「ザンパ」序曲
TTITLE6=ラロ:歌劇「イスの王様」序曲
EXTD=
EXTT0=
EXTT1=
EXTT2=
EXTT3=
EXTT4=
EXTT5=
EXTT6=
PLAYORDER=
